# xmcd CD database file
#
# Track frame offsets:
#	150
#	28152
#	61684
#	92415
#	124710
#	148912
#	177003
#	208097
#	234542
#	265525
#	284110
#	313093
#
# Disc length: 4365 seconds
#
# Revision: 0
# Processed by: cddbd v1.5.1PL0 Copyright (c) Steve Scherf et al.
# Submitted via: CDex 1.51
#
DISCID=ad110b0c
DTITLE=Popa Chubby - Big Man, Big Guitar
DYEAR=2005
DGENRE=Blues
TTITLE0=Hey Joe
TTITLE1=Dirty Lie
TTITLE2=Back Door Man
TTITLE3=I Can't See the Light of Day
TTITLE4=If the Diesel Don't Get You Then the Jet Fuel Will
TTITLE5=Sweet Goddess of Love and Beer
TTITLE6=Motocycle Mama
TTITLE7=Someone Let the Devil Out
TTITLE8=Hallelujah
TTITLE9=Keep On the Sunny Side
TTITLE10=Time Is Killing Me
TTITLE11=How'd a White Boy Get the Blues
EXTD=YEAR: 2005
EXTT0=
EXTT1=
EXTT2=
EXTT3=
EXTT4=
EXTT5=
EXTT6=
EXTT7=
EXTT8=
EXTT9=
EXTT10=
EXTT11=
PLAYORDER=
